<?xml version="1.0" standalone="no"?>
<!DOCTYPE svg PUBLIC "-//W3C//DTD SVG 20010904//EN"
 "http://www.w3.org/TR/2001/REC-SVG-20010904/DTD/svg10.dtd">
<svg version="1.0" xmlns="http://www.w3.org/2000/svg"
 width="512.000000pt" height="512.000000pt" viewBox="0 0 512.000000 512.000000"
 preserveAspectRatio="xMidYMid meet">
<metadata>
Created by potrace 1.14, written by Peter Selinger 2001-2017
</metadata>
<g transform="translate(0.000000,512.000000) scale(0.100000,-0.100000)"
fill="#000000" stroke="none">
<path d="M2458 4905 c-2 -1 -46 -5 -98 -9 -122 -8 -177 -16 -337 -50 -136 -29
-407 -131 -558 -211 -68 -37 -210 -121 -230 -137 -5 -5 -39 -30 -75 -56 -36
-25 -67 -49 -70 -52 -3 -3 -23 -20 -45 -39 -477 -405 -770 -973 -823 -1596
-31 -367 31 -766 171 -1095 142 -334 375 -657 622 -865 33 -27 62 -52 65 -55
3 -3 32 -26 65 -51 320 -242 702 -400 1100 -455 127 -18 345 -23 500 -12 304
22 654 122 903 260 32 17 77 42 102 56 50 27 212 137 245 165 146 126 223 195
238 212 10 11 38 40 61 65 286 302 520 784 581 1195 4 28 9 61 11 75 18 118
22 355 10 510 -11 145 -19 201 -46 315 -6 28 -13 57 -15 65 -9 37 -75 240 -93
285 -24 60 -110 238 -152 313 -29 53 -144 222 -179 264 -156 187 -230 263
-373 378 -224 181 -467 316 -721 401 -105 34 -298 84 -372 94 -27 4 -61 9 -75
11 -84 12 -403 27 -412 19z m342 -439 c14 -2 41 -7 60 -10 129 -19 380 -94
490 -145 211 -100 391 -225 554 -385 102 -101 218 -242 273 -331 31 -50 73
-125 72 -127 -1 -2 12 -25 28 -53 47 -80 140 -338 158 -440 2 -16 7 -41 10
-55 21 -95 32 -245 30 -385 -3 -181 -5 -196 -51 -435 -14 -71 -92 -279 -144
-385 -71 -143 -80 -160 -144 -249 l-50 -69 -55 64 c-71 81 -195 204 -241 237
-19 14 -40 31 -45 38 -14 16 -199 136 -260 169 -166 88 -411 171 -590 200 -22
3 -58 9 -80 13 -22 4 -137 7 -255 7 -183 -1 -233 -4 -335 -24 -410 -79 -785
-286 -1056 -581 -46 -50 -91 -102 -99 -116 -8 -13 -17 -24 -20 -24 -11 0 -96
128 -171 257 -97 168 -191 439 -214 618 -3 28 -8 64 -11 80 -9 56 -12 371 -4
421 4 27 11 71 14 98 41 302 181 625 389 896 79 103 278 291 396 374 264 185
587 310 886 342 33 3 61 8 63 9 6 5 375 -3 402 -9z m-45 -2770 c322 -45 608
-178 829 -386 109 -103 207 -221 193 -234 -64 -60 -257 -183 -382 -242 -191
-89 -385 -151 -534 -169 -30 -4 -63 -9 -75 -12 -49 -12 -369 -9 -463 3 -165
23 -344 68 -440 110 -17 8 -33 14 -36 14 -2 0 -22 8 -43 17 -22 9 -41 17 -44
18 -8 2 -132 68 -155 82 -11 7 -28 16 -37 19 -10 3 -18 10 -18 15 0 5 -6 9
-12 9 -7 0 -53 30 -101 65 l-88 66 33 42 c30 39 75 89 140 157 70 74 305 250
333 250 4 0 19 8 33 19 54 37 270 115 381 136 40 7 169 25 201 28 60 4 232 0
285 -7z"/>
<path d="M2558 4056 c-1 -2 -39 -6 -83 -9 -368 -27 -690 -328 -760 -712 -6
-35 -6 -215 0 -264 35 -264 226 -519 479 -640 126 -61 224 -82 376 -82 234 0
452 97 614 272 115 124 188 271 221 444 6 35 6 214 0 264 -34 251 -212 501
-447 625 -109 58 -193 83 -308 92 -36 3 -70 7 -77 9 -6 2 -13 2 -15 1z m102
-441 c186 -41 331 -231 325 -426 -9 -270 -259 -463 -525 -404 -187 41 -331
231 -325 426 9 271 258 463 525 404z"/>
</g>
</svg>
